<?xml version="1.0" standalone="no"?>
<!DOCTYPE svg PUBLIC "-//W3C//DTD SVG 20010904//EN"
 "http://www.w3.org/TR/2001/REC-SVG-20010904/DTD/svg10.dtd">
<svg version="1.0" xmlns="http://www.w3.org/2000/svg"
 width="1332.000000pt" height="1660.000000pt" viewBox="0 0 1332.000000 1660.000000"
 preserveAspectRatio="xMidYMid meet">

<g transform="translate(0.000000,1660.000000) scale(0.100000,-0.100000)"
fill="#000000" stroke="none">
<path d="M6482 11856 c-12 -16 -30 -26 -46 -26 -14 0 -26 -4 -26 -10 0 -5 -8
-10 -19 -10 -10 0 -24 -7 -31 -15 -17 -21 -47 -19 -77 5 -19 15 -29 17 -39 9
-9 -7 -19 -7 -35 1 -17 9 -31 10 -60 1 -40 -12 -59 -35 -59 -70 0 -12 -9 -26
-20 -33 -11 -7 -20 -18 -20 -25 0 -16 -26 -17 -35 -3 -4 6 -21 10 -38 10 -18
0 -48 2 -67 6 -44 7 -83 -21 -101 -71 -11 -28 -19 -35 -50 -40 -40 -7 -49 -22
-49 -84 l0 -34 -23 25 c-29 31 -86 46 -98 27 -5 -8 -9 -22 -9 -33 0 -11 -5
-16 -14 -13 -18 7 -46 -89 -46 -156 0 -35 -4 -47 -15 -47 -8 0 -17 -10 -19
-22 -12 -58 -14 -98 -5 -103 22 -14 8 -31 -21 -27 -41 6 -115 -23 -140 -55
-29 -37 -27 -113 5 -181 l25 -53 -35 -47 c-46 -59 -89 -86 -115 -72 -33 18
-75 -38 -100 -130 -9 -34 -9 -57 0 -100 9 -42 9 -75 -1 -140 -6 -47 -11 -100
-10 -117 0 -18 -3 -33 -8 -33 -5 0 -34 -23 -65 -51 -73 -67 -108 -137 -114
-234 -6 -93 10 -161 60 -254 28 -53 36 -76 27 -82 -9 -5 -3 -24 21 -66 30 -51
38 -82 66 -253 l31 -195 -20 -38 c-12 -21 -80 -100 -152 -176 -133 -140 -179
-205 -221 -309 -48 -119 -58 -179 -58 -327 0 -119 4 -155 27 -238 46 -171 182
-429 251 -475 19 -13 83 -43 143 -66 170 -67 184 -77 197 -128 6 -26 4 -28
-22 -28 -35 0 -68 -23 -88 -62 -24 -47 -21 -235 5 -294 11 -24 22 -44 24 -44
15 0 90 40 100 53 8 10 22 13 43 10 26 -4 34 -13 52 -54 21 -50 21 -50 59 -44
63 11 73 16 73 35 0 10 8 26 17 36 16 16 18 15 31 -5 8 -11 20 -21 26 -21 6 0
24 -22 39 -50 15 -27 32 -52 37 -55 9 -6 70 21 80 35 4 6 97 50 105 50 2 0 15
-20 29 -45 15 -25 29 -45 32 -45 18 0 83 43 87 57 3 10 11 42 18 72 11 44 19
56 45 68 30 15 33 14 100 -26 102 -62 196 -87 385 -105 89 -9 173 -16 185 -16
23 0 22 0 -7 -58 -17 -31 -31 -67 -32 -80 0 -12 -6 -22 -12 -22 -6 0 -64 16
-130 36 -74 21 -132 33 -150 30 -84 -14 -102 -20 -126 -42 -14 -13 -28 -21
-32 -18 -13 14 -58 -8 -67 -32 -13 -34 7 -88 64 -168 25 -35 46 -68 46 -72 0
-4 -8 -12 -17 -19 -14 -11 -20 -6 -40 36 -56 111 -168 161 -528 235 -298 61
-348 74 -376 100 -40 38 -109 29 -109 -14 0 -22 -51 -65 -80 -67 -14 -1 -32
-5 -41 -9 -12 -5 -18 -1 -23 18 -11 45 -47 59 -144 58 -84 -1 -754 -91 -831
-112 -20 -5 -50 -23 -65 -39 l-28 -29 20 -44 c11 -24 23 -55 26 -70 4 -16 30
-48 66 -79 78 -68 97 -100 116 -195 26 -138 28 -294 6 -422 -11 -63 -22 -115
-24 -117 -7 -7 -216 -65 -234 -65 -33 0 -64 -29 -64 -59 0 -28 29 -62 82 -95
20 -13 28 -27 30 -54 3 -35 7 -39 92 -85 107 -58 115 -57 211 18 92 71 147
100 242 127 144 40 278 23 373 -47 19 -14 44 -25 56 -25 29 0 70 34 78 65 4
14 16 35 27 46 20 20 21 28 15 108 -9 115 -20 160 -45 184 -20 21 -21 21 -208
3 -103 -9 -206 -19 -228 -22 -39 -5 -40 -4 -53 33 -36 101 -26 133 51 169 64
29 109 30 152 4 32 -20 35 -20 68 -4 39 19 36 9 52 207 6 78 -18 155 -55 176
-24 13 -33 11 -115 -24 -50 -20 -117 -48 -149 -61 l-59 -24 7 93 c4 50 11 96
16 101 4 4 46 10 93 13 73 5 94 2 163 -21 43 -14 97 -37 119 -51 70 -43 83
-48 108 -41 31 7 52 62 42 112 -5 28 -1 40 18 64 l24 28 36 -51 36 -52 -24
-25 c-31 -33 -31 -46 1 -110 89 -176 108 -632 36 -855 -23 -73 27 -101 115
-65 40 17 57 20 66 11 22 -22 72 -10 142 33 39 24 76 54 83 67 12 23 11 76 -5
169 -6 34 -5 35 14 18 11 -10 35 -18 56 -18 29 0 41 -7 66 -37 41 -50 67 -122
76 -208 8 -78 26 -115 56 -115 26 0 69 23 93 49 11 12 38 30 60 40 23 10 65
43 94 74 44 48 52 62 52 95 0 31 -7 46 -37 75 -20 21 -40 37 -44 37 -9 0 -179
200 -179 210 0 4 35 28 77 55 144 92 241 216 259 332 7 45 7 45 20 22 38 -74
74 -309 74 -490 0 -146 -11 -246 -36 -326 -30 -97 5 -134 96 -99 49 19 58 20
108 10 26 -5 44 1 102 35 96 57 104 72 96 169 -4 42 -16 97 -27 121 -19 45
-25 91 -11 91 19 0 29 -25 25 -60 -7 -48 21 -80 70 -80 63 0 126 -96 141 -215
13 -99 17 -115 32 -130 26 -26 62 -18 107 24 23 22 56 43 72 47 18 4 56 34 93
72 49 52 62 72 62 96 0 39 -20 69 -71 106 -37 26 -206 218 -198 223 2 2 49 33
104 69 105 70 171 130 177 163 2 11 2 -67 0 -172 -3 -128 -1 -214 8 -255 25
-133 109 -255 228 -335 90 -59 240 -133 272 -133 47 0 62 53 35 123 -9 23 11
22 66 -3 59 -26 103 -26 130 3 11 12 54 90 94 172 146 301 166 385 146 618 -9
106 -16 145 -28 154 -12 9 -14 21 -9 49 l7 36 17 -23 c25 -37 44 -48 79 -49
21 0 37 7 47 21 14 21 15 20 37 -22 12 -24 28 -62 34 -84 12 -40 13 -40 68
-45 l56 -5 20 55 c11 30 23 69 27 85 13 65 14 67 30 50 9 -8 25 -15 37 -15 18
0 27 -14 50 -75 l28 -75 -20 -26 c-12 -15 -21 -32 -21 -39 0 -12 43 -105 83
-180 20 -36 22 -54 21 -185 -1 -98 -7 -171 -19 -225 -26 -121 -28 -144 -15
-160 17 -21 67 -18 119 6 31 13 48 16 55 9 20 -20 69 -9 138 32 97 57 104 71
90 164 -7 41 -19 88 -27 104 -14 28 -55 181 -55 208 0 27 72 1 121 -45 26 -23
27 -24 67 -8 l40 16 7 87 c9 122 6 241 -7 266 -23 44 -51 46 -158 12 -41 -14
-78 -21 -83 -17 -4 4 0 47 10 95 13 67 14 94 6 116 -10 28 -10 29 27 35 65 11
191 -29 253 -81 33 -27 79 -31 98 -8 7 8 14 40 17 70 10 117 19 42 26 -203 4
-142 11 -294 16 -339 11 -90 47 -205 84 -269 34 -58 107 -122 174 -153 52 -24
72 -27 237 -33 l180 -6 92 42 c56 27 96 52 103 66 16 29 6 189 -15 250 -9 25
-20 119 -27 236 -14 227 -6 317 41 464 17 53 31 106 31 118 0 29 -35 61 -68
61 -17 0 -32 8 -40 21 -11 18 -21 20 -60 16 -26 -2 -74 -13 -107 -25 -33 -11
-73 -25 -90 -29 -50 -14 -60 -51 -41 -142 9 -42 20 -137 26 -211 11 -147 13
-472 4 -507 l-6 -22 -39 26 c-30 20 -51 26 -86 24 -25 0 -49 -4 -54 -7 -5 -3
-19 16 -32 43 -20 44 -22 63 -22 213 0 183 11 240 71 387 44 107 52 155 30
188 -12 19 -25 25 -52 25 -19 0 -43 7 -52 16 -21 21 -109 13 -155 -14 -17 -11
-45 -22 -62 -25 -16 -3 -37 -8 -46 -12 -13 -5 -18 3 -23 44 -9 69 -34 87 -133
97 -51 4 -88 3 -108 -5 -16 -6 -75 -16 -130 -22 -265 -29 -442 -107 -517 -228
l-22 -34 -13 39 c-7 21 -20 51 -28 66 -8 14 -15 34 -15 45 0 39 -22 95 -51
127 -21 25 -26 35 -16 39 20 7 6 100 -49 328 -24 102 -44 189 -44 192 0 4 -14
7 -31 7 -24 0 -29 -3 -25 -17 3 -10 21 -83 40 -163 41 -173 61 -289 51 -298
-12 -12 -63 60 -115 163 -28 55 -48 87 -45 70 10 -48 71 -172 121 -243 l45
-65 -41 7 c-55 9 -117 -9 -152 -45 -16 -16 -31 -29 -33 -29 -1 0 -5 12 -8 28
-4 15 -18 41 -32 57 -21 24 -24 25 -15 7 7 -13 10 -26 7 -28 -2 -2 -26 6 -53
18 -64 28 -195 36 -281 15 -35 -8 -63 -12 -63 -10 0 2 7 18 16 36 l15 32 -20
-25 c-11 -14 -26 -37 -32 -52 -15 -37 -33 -35 -59 7 -25 41 -30 44 -22 13 5
-22 5 -22 -19 -5 -87 62 -135 72 -255 51 -51 -9 -99 -14 -105 -12 -6 2 6 16
27 31 22 14 66 54 99 87 l60 61 -179 -118 -180 -118 -23 23 c-20 20 -76 49
-168 87 -15 6 0 10 52 16 44 4 91 17 125 33 29 14 44 24 33 20 -66 -20 -214
-45 -300 -50 -101 -6 -386 16 -490 38 -92 20 -229 90 -255 132 -12 19 -26 116
-35 246 -1 25 -6 80 -10 122 -6 55 -3 112 10 204 17 123 17 172 -1 361 l-6 62
-57 3 -56 3 3 80 c8 167 44 284 102 327 14 10 50 23 82 30 72 15 120 2 178
-50 42 -37 43 -39 48 -115 2 -42 8 -77 12 -77 10 0 20 52 20 104 0 58 26 153
56 204 38 64 76 84 147 79 90 -8 154 -62 179 -153 11 -40 4 -125 -13 -157 -10
-17 -13 -14 -33 29 -23 49 -61 93 -105 122 -22 15 -22 16 -5 29 16 12 13 13
-23 13 -37 0 -41 -3 -57 -37 -17 -40 -46 -163 -46 -201 0 -19 5 -23 23 -20 14
2 21 9 18 18 -2 8 -6 40 -8 70 -6 71 20 110 73 110 56 0 100 -60 111 -151 l6
-49 43 0 c39 0 44 3 44 23 1 92 22 264 36 285 22 34 79 55 134 49 37 -4 41 -3
22 6 -21 10 -89 94 -169 210 -31 45 -34 47 -80 46 -49 -1 -49 -3 -1 -13 21 -5
44 -31 98 -111 38 -57 70 -107 70 -110 0 -3 -15 -5 -34 -5 -18 0 -45 -9 -58
-20 l-25 -19 -74 28 -73 28 -54 87 c-29 48 -63 93 -75 100 -12 8 -49 17 -82
20 l-60 6 75 -29 c74 -28 75 -29 107 -92 18 -35 33 -68 33 -74 0 -5 -20 -10
-44 -10 -29 0 -54 -7 -73 -21 -34 -25 -80 -106 -88 -156 -4 -21 -9 -38 -12
-38 -2 0 -31 21 -64 46 -59 45 -59 45 -59 98 0 30 7 72 15 95 21 61 8 50 -24
-20 -18 -41 -30 -56 -34 -46 -3 8 -26 29 -51 46 l-46 32 55 -82 c30 -45 55
-86 55 -90 0 -4 -24 -5 -54 -2 -44 5 -63 1 -100 -17 -89 -43 -125 -124 -133
-302 -6 -131 -19 -145 -50 -56 -17 47 -18 48 -24 21 -12 -54 -9 -125 7 -159
20 -42 13 -52 -20 -30 -37 24 -50 84 -38 177 7 59 6 89 -4 130 -18 68 -17 153
1 204 21 58 11 54 -15 -7 -19 -44 -22 -65 -18 -139 4 -81 3 -87 -13 -78 -57
30 -99 121 -99 216 l-1 48 -14 -34 c-21 -46 -19 -100 5 -165 l21 -54 -41 -108
c-45 -121 -86 -197 -168 -317 -30 -45 -49 -77 -41 -71 8 6 33 26 56 44 24 18
45 31 48 29 5 -6 -115 -267 -140 -306 -20 -30 -53 -43 -82 -32 -21 8 -21 7 -8
-24 17 -42 47 -158 42 -163 -2 -3 -37 45 -77 106 -40 60 -74 110 -77 110 -2 0
6 -18 17 -40 24 -47 17 -50 -36 -12 -70 51 -151 149 -193 233 -47 94 -53 125
-17 86 13 -14 43 -35 67 -47 l43 -22 -45 50 c-63 70 -126 177 -139 237 -21 95
8 217 79 329 21 34 74 132 116 217 l77 154 -41 -40 -41 -39 0 59 c0 99 20 237
44 295 23 59 21 58 103 44 26 -4 54 -2 71 5 23 10 34 9 58 -4 16 -8 38 -15 49
-15 31 1 104 37 152 76 24 19 47 33 53 29 17 -10 33 -82 26 -117 -8 -42 -40
-103 -77 -146 l-29 -33 0 31 c0 25 -12 7 -63 -90 -35 -66 -70 -128 -79 -138
-9 -9 -43 -32 -75 -50 -68 -38 -209 -155 -247 -205 -52 -68 -58 -240 -16 -431
21 -96 49 -147 102 -186 l31 -23 -36 48 c-57 74 -79 157 -79 295 1 123 22 258
47 296 8 13 57 51 108 86 108 72 227 161 315 236 34 29 62 49 62 46 0 -4 -26
-39 -58 -78 -71 -87 -85 -108 -56 -86 135 102 166 143 218 284 43 115 83 192
110 215 8 7 57 17 109 23 l95 11 -15 23 c-31 47 20 88 134 108 43 8 101 24
128 36 91 40 257 90 334 101 157 23 345 -8 556 -91 56 -22 129 -43 161 -46 90
-10 131 -46 145 -129 l6 -40 2 40 c1 46 -25 95 -65 122 l-27 17 23 6 c24 6 42
33 19 28 -9 -2 -12 8 -11 32 2 19 -4 58 -12 85 -64 207 16 425 172 470 60 18
114 43 147 69 19 15 19 16 -8 6 -59 -21 -59 -10 1 54 33 36 67 84 77 109 15
41 16 50 2 96 l-15 51 35 0 c24 0 41 -8 60 -27 l26 -28 -8 25 c-20 70 -94 76
-200 15 -89 -51 -94 -53 -70 -24 12 13 27 33 35 43 14 18 14 19 -8 7 -13 -7
-48 -35 -79 -63 l-55 -50 -22 35 c-11 20 -31 49 -44 66 l-23 31 28 10 c15 6
69 31 118 55 50 25 110 47 135 51 l45 6 -52 -31 c-29 -17 -53 -33 -53 -35 0
-1 26 6 58 17 34 12 96 22 152 25 l95 4 2 -148 c3 -168 -8 -225 -56 -291 -33
-45 -80 -77 -129 -88 l-34 -7 39 35 c21 20 36 37 33 40 -3 3 -57 -30 -120 -72
-138 -91 -154 -115 -156 -232 -1 -63 -6 -85 -29 -128 -16 -28 -32 -48 -36 -44
-4 5 -12 35 -17 68 -9 54 -10 56 -11 19 -1 -50 23 -135 54 -189 38 -66 68
-171 62 -218 -7 -48 -44 -87 -82 -87 -13 0 -27 -5 -31 -11 -13 -22 -82 3 -269
96 -220 109 -329 145 -444 145 -88 0 -204 -26 -331 -75 -47 -18 -123 -44 -170
-57 l-85 -23 90 -5 c85 -5 98 -9 243 -75 l153 -70 -83 -5 -83 -5 40 -15 c31
-12 81 -14 230 -13 107 2 203 -2 221 -7 33 -11 85 -62 127 -125 36 -54 120
-136 187 -180 l55 -37 -55 5 c-30 3 -49 3 -42 0 19 -8 14 -22 -6 -16 -11 2
-35 -2 -55 -11 -32 -13 -37 -13 -37 0 0 8 -10 14 -22 14 -13 0 -34 3 -48 6
-19 4 -15 -1 16 -20 58 -36 78 -78 72 -154 -5 -72 -22 -99 -37 -61 -13 35 -59
88 -96 110 -16 11 -24 19 -17 19 6 0 12 5 12 10 0 6 -13 10 -30 10 -22 0 -33
-7 -43 -27 -18 -35 -33 -101 -42 -175 -6 -51 -5 -58 10 -58 13 0 15 6 10 30
-4 16 -3 30 2 30 4 0 7 20 5 45 -6 64 16 95 66 95 114 0 148 -194 68 -384 -11
-27 -13 -43 -6 -50 20 -20 10 -44 -21 -55 -18 -6 -86 -11 -151 -11 -69 0 -151
-7 -196 -16 -121 -25 -182 -3 -182 66 0 47 23 64 76 58 28 -3 33 -1 29 11 -4
9 -16 44 -28 79 -19 55 -25 62 -48 62 -24 0 -27 -5 -33 -46 -3 -26 -6 -60 -6
-75 0 -16 -3 -29 -7 -29 -18 0 -73 54 -73 71 0 19 -4 20 -41 14 -33 -6 -40 -4
-37 6 3 8 21 15 41 17 25 2 37 8 37 19 0 11 -5 13 -17 7 -10 -4 -30 -7 -45 -8
-27 0 -28 -2 -28 -61 -1 -33 -7 -90 -14 -127 -10 -55 -10 -65 1 -61 7 3 13 9
13 13 0 4 36 -3 81 -16 45 -13 126 -30 181 -38 56 -9 103 -18 107 -22 10 -11
-149 6 -239 25 -47 11 -87 17 -89 16 -6 -6 191 -63 259 -76 152 -27 413 -8
544 42 63 23 79 37 35 31 -38 -6 -37 3 4 24 17 9 33 18 35 19 2 2 -3 18 -11
37 -11 27 -29 42 -81 69 -66 34 -81 49 -48 49 25 0 123 -48 151 -73 l24 -22
-12 22 c-14 27 -64 65 -108 83 -32 12 -44 35 -23 42 14 4 29 104 34 236 3 62
8 117 11 122 3 6 20 17 37 26 60 31 154 -3 194 -70 21 -36 35 -103 27 -134 -5
-23 -6 -22 -35 13 -17 20 -55 50 -84 67 -30 16 -52 34 -49 38 3 4 -6 3 -20 -3
-33 -16 -39 -53 -31 -198 l6 -117 41 -40 c46 -46 46 -51 -9 110 -38 108 -38
140 -3 97 23 -27 26 -22 10 13 -14 31 4 78 29 78 33 0 85 -43 109 -91 33 -63
42 -173 19 -233 -10 -25 -33 -59 -52 -75 l-35 -31 17 -57 c24 -81 23 -153 -1
-188 -68 -95 -68 -104 -20 -221 39 -93 43 -128 19 -162 -8 -12 -13 -26 -9 -31
3 -5 1 -12 -5 -16 -13 -8 -50 -80 -50 -97 0 -6 12 12 26 40 25 50 82 102 111
102 17 0 17 -5 -12 -91 -23 -70 -24 -73 -4 -49 34 41 69 117 90 198 16 60 20
108 20 216 -1 325 74 457 381 664 145 99 194 144 229 214 24 49 24 49 -26 -12
l-38 -45 6 35 c3 19 9 73 11 120 l6 85 -15 -67 c-38 -166 -80 -221 -223 -289
-69 -34 -123 -67 -156 -99 l-52 -49 -29 157 c-36 191 -39 299 -10 332 11 13
35 29 52 36 47 20 63 58 60 146 -1 40 4 93 12 117 16 56 60 101 98 101 40 0
95 -40 132 -97 l33 -48 -2 40 c-3 66 -4 65 50 65 30 0 61 7 75 16 22 14 29 14
67 1 26 -8 51 -11 63 -6 12 4 14 8 6 8 -8 1 9 13 37 27 97 48 128 154 82 276
-24 63 -25 72 -6 65 9 -4 34 15 64 46 60 64 75 92 68 121 -4 15 5 42 23 77 46
85 64 161 59 248 -6 104 -40 173 -120 245 -53 49 -63 63 -78 119 -10 36 -24
77 -32 92 -13 24 -12 31 9 73 41 81 27 191 -32 260 -28 32 -34 35 -49 23 -13
-11 -20 -11 -42 4 -31 20 -110 23 -143 6 -11 -7 -21 -9 -21 -7 0 3 23 51 51
106 60 115 71 177 44 229 -22 43 -92 75 -147 68 -37 -5 -39 -4 -33 16 13 37 5
130 -11 142 -8 6 -19 38 -24 73 -10 76 -28 132 -41 132 -6 0 -15 14 -21 31 -7
20 -15 28 -25 25 -8 -4 -27 -9 -41 -13 -15 -3 -32 -13 -39 -22 -11 -14 -13
-12 -13 14 -2 41 -14 70 -31 71 -8 0 -24 2 -36 2 -14 1 -25 12 -31 32 -17 47
-56 80 -95 80 -18 0 -37 -3 -40 -6 -4 -4 -21 -8 -39 -9 -18 -1 -41 -5 -50 -9
-12 -6 -18 -4 -18 6 0 7 -9 19 -20 26 -11 7 -20 23 -20 35 0 47 -77 90 -120
67 -16 -9 -25 -9 -36 1 -12 10 -20 8 -44 -9 -34 -26 -53 -28 -70 -7 -7 8 -21
15 -31 15 -11 0 -19 5 -19 10 0 6 -12 10 -26 10 -16 0 -34 10 -46 25 -23 29
-81 34 -114 11 -14 -11 -22 -12 -33 -3 -10 9 -19 5 -40 -18 -55 -60 -77 -60
-127 -5 -12 14 -35 26 -51 27 -15 2 -49 5 -74 9 -41 5 -48 3 -67 -20z m90 -50
c10 -7 22 -24 27 -37 9 -23 10 -23 10 9 1 17 5 32 9 32 12 0 37 -31 46 -55 5
-14 9 -16 15 -7 13 21 41 -31 41 -76 0 -26 -7 -45 -20 -57 -19 -17 -19 -18 0
-44 29 -42 35 -77 16 -105 -23 -36 -54 -43 -72 -17 -22 31 -67 51 -116 51
l-43 0 35 -18 c21 -10 37 -27 40 -42 4 -16 8 -21 13 -13 5 7 3 21 -3 32 -16
30 -12 36 11 15 28 -26 49 -67 50 -101 l1 -28 14 33 c16 37 24 39 49 12 36
-40 -7 -92 -65 -77 -10 3 -21 -1 -24 -9 -8 -22 -107 -73 -164 -85 -108 -22
-192 20 -192 95 0 20 2 36 4 36 3 0 18 -13 34 -30 30 -30 56 -38 66 -21 3 5
-6 12 -19 15 -24 6 -54 50 -43 62 3 3 28 -2 56 -11 59 -20 95 -8 90 27 -4 29
-25 34 -24 6 1 -35 -45 -32 -58 4 -14 39 6 58 59 58 35 0 48 -5 64 -26 19 -24
21 -25 21 -7 0 11 -9 32 -20 46 -19 24 -23 25 -105 20 -98 -7 -110 3 -82 63
19 39 27 42 44 14 7 -10 23 -24 35 -31 22 -12 22 -11 6 8 -37 41 -14 77 28 44
34 -27 42 -26 37 2 -3 14 2 31 12 40 31 32 84 17 109 -31 l15 -27 1 33 c0 39
17 42 49 8 17 -18 22 -33 19 -55 -6 -38 -1 -40 13 -5 24 65 -20 92 -168 102
-122 8 -141 20 -111 69 19 31 38 42 38 20 0 -7 10 -22 23 -33 12 -10 16 -12
10 -4 -15 16 -17 56 -4 64 4 3 16 -3 26 -14 23 -25 35 -26 28 -1 -7 26 14 61
35 61 9 0 25 -7 34 -14z m377 5 c8 -5 14 -22 15 -39 1 -25 4 -28 18 -21 9 5
18 14 20 21 9 26 30 -5 24 -36 -5 -29 -5 -30 9 -12 8 11 15 23 15 28 0 20 22
5 37 -27 25 -52 11 -61 -111 -68 -104 -6 -158 -22 -169 -50 -6 -17 3 -66 14
-73 5 -3 6 8 3 25 -5 23 -1 35 19 55 34 34 47 33 47 -3 0 -17 4 -33 10 -36 5
-3 7 0 4 9 -9 23 40 66 74 66 36 0 56 -22 50 -55 -6 -30 1 -31 36 -4 42 33 66
-3 29 -44 -17 -18 -17 -18 10 -6 14 6 29 20 32 31 4 10 10 18 15 18 16 0 42
-48 38 -72 -3 -22 -7 -23 -89 -23 -97 0 -129 -16 -129 -63 l0 -25 21 27 c16
21 29 26 64 26 53 0 73 -19 59 -58 -13 -36 -59 -39 -58 -4 1 27 -22 30 -29 3
-11 -42 29 -57 95 -35 27 9 52 14 55 11 12 -12 -10 -47 -37 -59 -35 -15 -39
-28 -9 -28 11 0 34 14 51 30 16 17 31 30 34 30 2 0 4 -16 4 -36 0 -81 -91
-120 -208 -90 -63 16 -139 57 -148 80 -3 8 -16 11 -34 8 -38 -5 -60 12 -60 47
0 55 43 69 56 19 l8 -33 3 36 c3 25 16 50 39 75 32 35 36 33 18 -11 -3 -8 -2
-15 4 -15 5 0 12 9 15 20 3 11 20 27 39 35 l33 14 -38 1 c-48 0 -102 -22 -117
-49 -15 -29 -34 -26 -64 10 -29 34 -28 55 6 102 l20 29 -23 24 c-28 30 -29 82
-3 121 16 26 18 26 25 8 6 -15 8 -16 8 -4 1 19 38 69 52 69 5 0 9 -15 10 -32
0 -32 1 -32 10 -8 17 42 49 59 78 41z m-725 -83 l16 -22 0 22 c0 25 25 30 34
6 8 -22 8 -58 -1 -70 -5 -5 -1 -2 7 7 8 9 20 25 26 35 14 24 34 10 34 -24 0
-68 -92 -152 -166 -152 -41 0 -67 14 -42 22 7 3 -6 13 -27 24 -46 22 -63 61
-23 51 12 -3 37 -9 53 -12 l30 -6 -32 15 c-18 8 -33 17 -33 20 0 2 -3 12 -6
21 -5 13 -2 15 18 10 23 -6 25 -4 21 19 -3 14 0 33 7 41 19 23 66 19 84 -7z
m1004 6 c8 -14 10 -14 21 0 31 38 98 5 86 -42 -5 -21 -3 -24 14 -19 26 6 27
-10 4 -36 -18 -19 -17 -20 20 -13 20 4 37 4 37 1 0 -21 -25 -45 -57 -56 -21
-7 -32 -14 -25 -16 23 -8 1 -23 -34 -23 -43 0 -80 18 -121 62 -41 42 -57 83
-43 109 14 24 27 24 35 0 3 -11 12 -24 19 -30 10 -8 12 -4 8 19 -7 51 16 80
36 44z m-1289 -129 l14 -30 10 28 c11 35 33 34 52 -3 21 -40 20 -44 -20 -59
-20 -7 -62 -37 -94 -67 -62 -57 -96 -68 -125 -38 -17 17 -22 89 -6 99 5 3 16
-8 25 -25 8 -16 23 -30 32 -30 15 0 15 1 0 18 -10 10 -17 29 -17 42 0 22 1 22
18 7 23 -21 46 -22 62 -2 16 19 5 34 -12 17 -33 -33 -39 12 -7 52 26 33 49 30
68 -9z m1660 9 c21 -26 28 -64 13 -64 -4 0 -18 7 -31 16 -22 16 -23 16 -11 -5
16 -30 37 -37 59 -17 10 9 21 16 24 16 13 0 7 -35 -9 -58 -8 -12 -10 -22 -5
-22 6 0 18 12 28 28 9 15 19 29 21 32 1 2 7 -2 12 -10 15 -24 12 -72 -7 -92
-28 -31 -61 -22 -126 37 -33 30 -75 60 -94 67 -36 13 -41 32 -17 66 20 30 40
28 49 -5 l6 -26 19 31 c24 39 42 40 69 6z m-1517 -115 l23 -31 5 33 5 32 33
-27 c34 -29 41 -62 20 -86 -11 -12 -10 -12 4 -2 9 7 19 24 22 39 7 25 7 25 27
7 15 -13 19 -28 17 -58 l-3 -41 -50 2 c-27 1 -68 5 -91 8 -36 6 -45 3 -85 -29
-24 -19 -57 -43 -72 -51 -26 -15 -31 -15 -60 2 -40 24 -46 64 -16 112 l20 34
20 -32 c10 -17 27 -31 36 -30 14 0 13 2 -4 9 -25 10 -41 56 -25 72 7 7 17 5
33 -6 28 -19 60 -23 41 -4 -7 7 -12 21 -12 33 0 30 19 45 57 45 25 0 38 -7 55
-31z m178 16 c0 -8 13 -24 30 -37 l30 -22 -22 -23 c-26 -28 -38 -29 -38 -3 0
11 -9 29 -20 40 -29 29 -25 60 7 60 7 0 13 -7 13 -15z m978 -8 c2 -9 -6 -25
-17 -36 -12 -12 -21 -30 -21 -41 0 -25 -8 -25 -36 1 l-22 21 36 38 c39 40 55
45 60 17z m122 -14 l1 -38 14 32 c23 53 102 60 119 11 8 -23 6 -31 -10 -43
-19 -14 -19 -14 1 -15 11 0 30 7 42 15 18 13 22 13 33 0 13 -16 0 -48 -28 -64
-16 -10 -16 -10 0 -11 10 0 25 14 34 32 l16 31 19 -24 c10 -13 21 -37 25 -54
6 -25 2 -33 -27 -57 -18 -15 -38 -28 -44 -28 -6 0 -38 20 -70 45 -67 53 -96
62 -140 46 -17 -6 -50 -11 -73 -11 l-42 0 0 44 c0 29 6 51 17 62 16 16 18 15
25 -14 12 -44 25 -47 20 -4 -4 30 0 39 24 59 39 31 44 29 44 -14z m475 -121
c0 -61 -6 -122 -13 -143 l-13 -36 -46 24 c-33 16 -63 23 -105 23 l-58 0 94 93
c59 58 98 106 107 129 22 62 34 29 34 -90z m-2070 -40 c52 -53 95 -97 95 -97
0 0 -29 -1 -63 -2 -43 -1 -78 -8 -105 -22 l-41 -21 -11 38 c-18 58 -24 203
-10 237 l12 30 14 -33 c7 -19 57 -77 109 -130z m-158 26 c0 -46 7 -104 16
-130 l15 -47 -32 -35 c-26 -27 -38 -33 -59 -29 -25 5 -27 8 -21 47 3 22 7 52
10 65 5 22 6 22 18 5 12 -15 14 -6 18 67 4 66 21 139 33 139 0 0 1 -37 2 -82z
m2272 34 c5 -20 13 -66 16 -101 5 -40 10 -59 16 -50 10 17 15 4 24 -63 6 -45
5 -48 -20 -54 -22 -5 -33 0 -61 27 l-33 34 16 45 c10 27 17 78 17 127 1 85 9
97 25 35z m-2093 0 c-4 -3 -14 2 -24 12 -16 18 -16 18 6 6 13 -6 21 -14 18
-18z m332 -38 c27 -19 30 -68 6 -104 l-17 -25 22 21 c13 12 25 38 28 63 5 39
7 41 39 41 32 0 34 -2 34 -34 0 -42 -51 -121 -99 -153 -48 -32 -92 -38 -135
-18 -41 20 -47 35 -13 36 21 0 21 0 -3 10 -27 11 -40 26 -40 48 0 11 5 10 20
-4 13 -12 27 -15 46 -11 29 8 111 82 101 92 -9 9 -48 -7 -41 -17 10 -17 -17
-39 -47 -39 -36 0 -39 25 -8 64 35 44 72 55 107 30z m1327 -15 c45 -40 49 -79
7 -79 -34 0 -56 18 -41 36 7 8 2 14 -17 18 -41 11 -40 0 3 -43 48 -49 86 -60
113 -36 13 12 20 14 20 6 0 -25 -21 -51 -43 -52 -17 -1 -15 -3 8 -8 l30 -7
-30 -19 c-42 -29 -102 -26 -151 6 -51 34 -94 97 -101 148 l-6 41 35 0 c33 0
36 -2 42 -39 3 -21 15 -49 27 -62 l21 -24 -16 25 c-22 34 -20 76 4 100 28 28
54 25 95 -11z m-612 -79 c78 -24 173 -86 205 -134 13 -19 26 -53 29 -75 8 -57
-41 -154 -117 -232 -72 -73 -125 -98 -206 -99 -52 0 -74 6 -142 40 -84 42
-140 98 -183 182 -72 140 1 255 201 319 73 24 134 23 213 -1z m-470 -68 c53 3
54 2 41 -17 -8 -11 -14 -27 -14 -37 0 -26 -17 -31 -70 -18 -79 19 -117 74 -94
134 4 12 14 6 44 -25 37 -39 41 -41 93 -37z m877 32 c0 -64 -33 -95 -115 -108
-40 -7 -40 -6 -60 37 l-20 44 44 -5 c52 -6 103 17 120 55 15 32 31 20 31 -23z
m-1302 -63 c43 -22 72 -59 72 -92 0 -20 -1 -21 -17 -7 -10 9 -29 19 -43 22
l-25 7 21 -18 c53 -45 58 -106 14 -157 -37 -42 -76 -52 -121 -33 -62 26 -85
81 -50 116 23 23 80 28 99 9 15 -15 24 -6 16 16 -9 23 -71 21 -111 -4 -18 -11
-34 -23 -34 -27 -9 -57 -7 -64 24 -87 18 -13 47 -31 64 -40 31 -16 206 -66
230 -66 7 0 3 16 -10 41 -16 31 -19 43 -9 46 6 3 12 15 12 27 0 55 75 99 130
76 39 -16 53 -55 41 -109 -11 -52 -23 -65 -48 -57 -36 11 -56 81 -28 92 12 5
13 10 4 20 -19 23 -29 16 -29 -21 0 -54 22 -94 84 -155 l56 -54 -20 39 c-20
40 -25 80 -14 110 16 41 109 58 164 30 17 -9 33 -16 37 -18 3 -1 31 -28 61
-59 74 -78 136 -108 222 -108 87 0 154 33 238 116 34 34 62 60 62 58 0 -3 13
2 30 11 55 28 148 11 164 -30 12 -32 6 -80 -14 -112 -32 -53 -8 -38 53 33 54
62 80 107 37 64 -42 -42 -70 -14 -70 69 0 32 6 55 16 65 50 51 154 10 154 -60
0 -12 6 -24 13 -27 9 -3 8 -13 -6 -42 -10 -20 -16 -40 -13 -42 7 -7 193 45
224 62 l27 16 -27 -6 c-36 -7 -89 16 -116 50 -32 41 -29 87 10 131 31 36 32
37 8 29 -14 -4 -33 -14 -42 -23 -16 -14 -18 -13 -18 2 0 32 32 74 74 97 33 19
57 23 116 24 165 0 242 -91 198 -236 -14 -49 -69 -114 -117 -138 -20 -11 -102
-33 -181 -49 -174 -36 -231 -56 -341 -123 -173 -106 -277 -145 -356 -136 -75
8 -73 22 6 62 40 19 70 39 67 44 -6 9 37 51 121 116 76 58 100 90 82 111 -13
15 -49 19 -49 5 0 -5 9 -7 20 -4 30 8 26 -28 -8 -60 -46 -44 -103 -27 -86 25
3 13 -14 -5 -40 -39 -69 -91 -175 -163 -241 -163 -56 0 -164 78 -225 163 -28
37 -28 37 -34 12 -9 -35 -54 -34 -89 3 -36 38 -37 67 -1 58 17 -5 23 -3 19 4
-9 14 -40 13 -53 -3 -17 -21 14 -59 114 -138 49 -40 88 -78 88 -86 -1 -8 28
-29 67 -49 39 -19 67 -39 64 -44 -3 -6 4 -10 17 -10 13 0 29 -5 36 -12 9 -9
12 -9 12 0 0 7 11 12 25 12 53 0 120 -54 108 -86 -7 -18 -133 -20 -133 -2 0 9
-3 9 -12 0 -7 -7 -39 -12 -76 -12 -63 0 -63 0 -60 27 2 17 14 35 33 48 l30 20
-65 1 c-83 2 -143 25 -295 114 -149 87 -195 105 -367 141 -76 15 -157 36 -180
47 -126 55 -180 232 -97 318 18 19 54 41 79 49 58 19 157 12 208 -14z m332
-52 c65 -32 110 -96 110 -155 0 -22 -4 -24 -49 -24 -41 0 -51 4 -56 20 -9 28
-67 70 -107 76 -21 4 -53 -2 -88 -15 -30 -12 -56 -21 -57 -21 -9 0 -1 100 8
106 16 9 129 6 167 -5 18 -5 30 -6 27 -1 -3 5 -22 12 -43 16 -51 9 -61 17 -32
25 33 8 76 0 120 -22z m1064 10 c-3 -5 -17 -9 -32 -9 -15 -1 -38 -8 -52 -16
-17 -11 -19 -13 -5 -9 40 13 126 22 163 16 37 -6 37 -7 40 -59 2 -28 1 -52 -2
-52 -3 0 -28 9 -56 20 -28 11 -63 20 -78 20 -36 0 -89 -34 -110 -70 -16 -27
-22 -30 -70 -30 l-54 0 7 33 c18 83 73 142 153 162 47 12 105 8 96 -6z m-1754
-91 c-1 -47 16 -176 19 -143 1 18 4 17 27 -9 25 -28 25 -30 8 -43 -10 -7 -26
-13 -37 -13 -14 0 -17 5 -11 23 l6 22 -24 -22 c-13 -13 -34 -23 -45 -23 -32 0
-63 46 -63 94 0 30 -3 37 -10 26 -27 -42 -5 -92 104 -235 112 -147 133 -197
101 -242 -13 -19 -19 -20 -56 -12 -80 18 -139 -25 -139 -102 0 -21 -3 -21 -88
-17 -101 5 -161 31 -199 87 -41 60 -29 173 25 234 8 9 18 17 21 17 4 0 6 -33
5 -72 -1 -40 0 -57 2 -38 10 77 47 120 104 120 35 0 79 -29 86 -55 19 -75 -51
-139 -90 -83 -18 26 -21 10 -5 -25 10 -22 14 -23 55 -16 140 26 147 76 40 290
-75 149 -84 199 -43 237 29 27 77 37 114 24 21 -7 31 -6 41 4 7 8 22 14 33 14
17 0 20 -6 19 -42z m2362 28 c10 -10 20 -11 41 -3 37 13 101 -6 122 -36 27
-38 17 -79 -49 -215 -79 -159 -92 -202 -74 -240 16 -33 71 -62 119 -62 31 0
38 4 49 30 7 17 10 33 7 36 -3 3 -8 -4 -12 -15 -8 -25 -50 -38 -70 -21 -8 7
-19 28 -25 48 -11 43 6 77 46 92 64 25 115 -4 139 -78 l15 -47 -5 62 c-4 51
-2 61 10 57 22 -9 65 -104 65 -146 0 -117 -93 -188 -246 -188 l-74 0 0 34 c0
69 -61 108 -137 87 -32 -9 -40 -8 -50 6 -34 46 -8 108 113 268 85 111 113 168
99 202 -6 14 -9 11 -15 -19 -14 -78 -58 -108 -108 -73 -20 14 -21 14 -16 0 6
-16 -19 -21 -50 -9 -21 8 -20 16 6 49 32 41 56 118 46 146 -5 12 -6 29 -4 36
7 17 42 17 58 -1z m-194 -419 c13 -34 22 -81 22 -112 l0 -55 -55 0 c-30 0 -55
3 -55 8 1 26 23 155 37 215 16 68 17 70 23 37 4 -19 16 -61 28 -93z m-1974 36
c9 -43 20 -106 23 -140 l6 -63 -58 0 -58 0 7 64 c3 36 15 84 26 108 11 24 20
58 20 76 0 56 16 35 34 -45z m120 -62 c26 -27 72 -148 61 -160 -3 -3 -16 0
-28 7 -12 7 -4 -3 17 -22 39 -36 112 -68 199 -89 71 -17 57 -31 -25 -24 -135
10 -237 60 -273 132 -19 40 -32 141 -21 170 9 24 40 18 70 -14z m1516 8 c31
-11 31 -12 25 -63 -12 -84 -46 -131 -117 -161 -44 -18 -141 -20 -187 -4 -31
11 -32 14 -26 47 9 48 47 122 78 150 53 50 139 61 227 31z m228 9 c17 -17 15
-71 -5 -141 -13 -48 -23 -64 -56 -88 -56 -41 -138 -68 -223 -76 -88 -7 -100 8
-20 26 62 14 185 70 205 94 15 19 1 23 -17 5 -9 -9 -12 -7 -12 9 0 41 34 126
63 154 31 32 46 36 65 17z m-1355 -22 c47 -19 102 -88 122 -153 17 -54 17 -57
0 -69 -50 -37 -190 -25 -251 21 -45 34 -64 74 -67 137 l-2 52 40 12 c54 17
119 17 158 0z m289 -192 c11 -23 9 -28 -12 -44 -30 -23 -60 -10 -60 25 0 45
54 59 72 19z m379 5 c18 -18 19 -23 6 -42 -19 -28 -28 -30 -57 -8 -22 18 -23
21 -10 45 16 31 33 33 61 5z m-1066 -54 c50 -24 103 -49 118 -55 l28 -10 -23
-31 c-13 -17 -33 -46 -44 -66 l-22 -35 -55 50 c-31 28 -66 56 -79 63 -22 12
-22 11 -8 -7 8 -10 23 -30 35 -43 24 -29 19 -27 -70 24 -106 61 -180 55 -200
-15 l-8 -25 26 28 c19 19 36 27 60 27 l35 0 -15 -51 c-14 -46 -13 -55 2 -96
10 -25 44 -73 77 -109 60 -64 60 -75 1 -54 -27 10 -27 9 -8 -6 33 -26 87 -51
147 -69 90 -26 149 -100 184 -230 19 -70 17 -129 -7 -220 -11 -43 -19 -92 -17
-109 1 -20 -2 -30 -10 -29 -7 2 -12 -1 -12 -5 0 -15 24 -32 44 -33 19 0 18 -1
-4 -10 -33 -13 -60 -39 -71 -66 -12 -31 -58 -42 -76 -18 -28 39 -9 115 50 198
27 40 57 141 56 190 -1 39 -2 37 -11 -18 -5 -33 -13 -63 -17 -68 -4 -4 -20 16
-36 44 -23 43 -28 65 -29 128 -2 117 -18 141 -156 232 -63 42 -117 75 -120 72
-3 -3 12 -20 33 -40 l39 -35 -34 7 c-49 11 -96 43 -129 88 -48 66 -59 123 -56
291 l2 148 95 -4 c56 -3 118 -13 153 -25 31 -11 57 -18 57 -17 0 2 -24 18 -52
35 l-53 31 45 -6 c25 -4 86 -26 135 -51z m936 25 c95 -18 103 -59 21 -107 -64
-38 -146 -38 -218 0 -82 42 -80 75 5 101 56 18 120 19 192 6z m-302 -49 c9 -6
-2 -14 -39 -26 -28 -9 -54 -23 -57 -31 -3 -9 -21 -14 -48 -14 -75 0 -105 -10
-105 -35 0 -20 -7 -23 -56 -29 -63 -7 -119 -33 -149 -67 -17 -20 -15 -19 13 4
33 27 72 41 150 53 35 5 45 3 56 -12 13 -17 14 -16 9 9 -8 39 20 67 67 67 37
0 37 -1 36 -38 0 -21 7 -50 16 -64 17 -26 80 -61 132 -74 l30 -7 -22 28 c-12
15 -20 30 -18 33 9 8 151 -66 174 -91 19 -20 22 -29 13 -45 -17 -32 -60 -53
-129 -63 -37 -5 -84 -20 -108 -34 -61 -36 -146 -55 -241 -55 -136 0 -186 35
-189 133 -1 26 -5 51 -8 54 -3 4 -6 17 -6 30 0 13 -4 22 -9 19 -13 -8 -21 19
-21 66 0 75 85 129 229 145 51 6 54 5 47 -13 -5 -13 3 -9 26 13 18 18 44 36
58 42 31 12 130 14 149 2z m577 -10 c48 -22 81 -61 61 -73 -9 -6 -9 -8 0 -8
22 0 34 -36 23 -67 l-10 -28 19 24 c18 24 20 24 82 12 35 -7 79 -21 97 -32 44
-25 51 -24 18 2 -30 24 -105 49 -145 49 -22 0 -29 7 -42 45 l-17 45 38 0 c59
0 167 -38 205 -71 55 -49 56 -93 3 -194 -10 -18 -8 -18 14 3 13 12 28 19 31
15 15 -15 6 -81 -15 -113 -27 -39 -57 -56 -39 -22 6 11 11 29 11 39 -1 10 -7
1 -14 -20 -8 -20 -19 -44 -26 -52 -49 -59 -284 -49 -396 17 -20 12 -70 27
-112 34 -80 14 -132 48 -132 86 0 21 51 57 133 92 60 27 67 25 40 -13 -16 -24
-16 -24 13 -17 95 23 144 71 144 140 0 32 3 35 33 39 22 3 17 4 -19 5 -31 1
-56 8 -64 16 -6 8 -32 23 -56 32 -31 12 -41 20 -32 25 23 15 112 9 154 -10z
m-1875 -8 c40 -19 43 -28 33 -82 -6 -30 -8 -31 -64 -31 l-58 0 9 38 c13 49 30
92 37 92 3 0 23 -8 43 -17z m3076 -14 c6 -13 15 -41 18 -61 l7 -38 -55 0 c-48
0 -55 3 -61 23 -13 51 -7 73 27 90 39 19 49 17 64 -14z m-1736 -50 c42 -29 25
-47 -28 -30 -28 9 -45 10 -66 2 -49 -19 -66 14 -24 44 28 20 76 14 118 -16z
m467 11 c37 -35 23 -58 -25 -39 -21 8 -38 7 -66 -2 -51 -17 -70 1 -30 28 54
39 89 42 121 13z m-1548 -14 c0 -3 -41 -26 -90 -52 -97 -51 -142 -86 -75 -58
57 23 78 14 32 -15 -64 -40 -143 -161 -192 -296 -27 -73 -33 -74 -40 -9 -9 81
-13 89 -14 24 -1 -74 23 -183 50 -227 40 -64 128 -77 156 -22 18 34 16 53 -7
80 -14 18 -19 20 -20 9 0 -9 5 -21 11 -27 9 -9 8 -18 -4 -37 -43 -66 -103 -30
-94 57 5 59 32 90 76 89 63 -2 110 -55 112 -127 1 -39 1 -39 11 -12 7 19 6 37
-1 58 -16 47 9 32 37 -21 32 -64 25 -133 -22 -205 l-16 -25 -38 25 c-60 40
-89 41 -156 5 -73 -39 -92 -33 -135 42 -38 66 -39 75 -3 50 54 -38 56 -35 12
14 -83 93 -128 217 -117 322 11 106 87 211 192 264 l39 20 -48 -53 c-48 -53
-102 -146 -92 -157 3 -3 6 0 6 6 0 22 131 150 197 193 80 53 233 108 233 85z
m2613 -20 c94 -34 186 -96 262 -179 36 -38 65 -65 65 -59 0 16 -80 130 -106
151 -36 28 -29 34 14 12 100 -51 174 -153 188 -257 13 -103 -37 -242 -119
-332 -41 -45 -38 -47 16 -10 21 15 27 16 27 5 0 -17 -47 -83 -84 -116 l-26
-25 -28 27 c-56 53 -113 57 -185 11 l-37 -24 -20 32 c-47 78 -51 160 -11 217
29 41 42 39 29 -3 -7 -23 -7 -42 0 -62 10 -28 10 -27 11 17 1 59 34 110 81
125 46 15 71 5 92 -37 35 -67 10 -150 -40 -135 -31 10 -59 53 -43 69 6 6 11
18 11 27 -1 11 -6 8 -21 -10 -15 -17 -19 -32 -15 -54 9 -45 24 -56 73 -56 37
0 50 5 74 31 35 38 59 115 58 183 -2 47 -2 48 -8 16 l-7 -35 -16 36 c-9 20
-19 47 -23 60 -29 94 -124 235 -184 271 -44 28 -22 37 34 14 67 -28 22 7 -75
58 -49 26 -90 49 -90 52 0 10 39 2 103 -20z m-2277 -42 l35 -27 -22 -23 c-13
-13 -26 -24 -29 -24 -4 0 -12 23 -17 50 -6 28 -8 50 -6 50 2 0 20 -12 39 -26z
m1868 -11 c-11 -61 -17 -67 -44 -38 -13 14 -22 26 -19 28 2 2 17 13 33 25 16
12 31 22 33 22 2 0 1 -17 -3 -37z m-1071 -18 c100 -53 152 -51 252 10 46 29
81 31 113 9 59 -41 41 -77 -23 -43 l-36 20 -73 -41 c-95 -52 -135 -53 -220 -5
-69 38 -88 41 -126 21 -27 -15 -66 -4 -54 15 10 16 67 49 85 49 9 0 46 -16 82
-35z m-1133 -10 c0 -2 -20 -18 -45 -35 -105 -72 -165 -168 -165 -263 0 -31 -5
-45 -19 -54 -16 -10 -20 -9 -25 10 -23 88 26 220 107 287 35 28 147 71 147 55z
m460 -10 c17 -9 30 -17 30 -19 0 -3 3 -11 6 -19 4 -11 -2 -16 -17 -19 -18 -2
-26 -13 -35 -43 l-12 -40 -11 28 c-14 36 -14 127 -1 127 6 0 24 -7 40 -15z
m1631 -7 c2 -38 -2 -92 -7 -110 -8 -29 -22 -21 -26 15 -2 22 -10 35 -25 42
-30 13 -29 29 3 54 35 27 54 27 55 -1z m506 -4 c106 -42 192 -203 168 -313 -6
-27 -9 -29 -26 -18 -13 8 -19 23 -19 48 0 74 -28 138 -88 198 -31 31 -73 69
-92 84 l-35 27 30 -6 c17 -4 44 -12 62 -20z m-2617 -50 c0 -4 -13 -22 -30 -40
-50 -58 -73 -113 -78 -191 l-5 -72 -28 15 c-27 13 -29 19 -29 72 1 91 44 163
125 205 33 18 45 20 45 11z m2610 -19 c67 -35 110 -113 110 -199 0 -51 -2 -57
-30 -71 -16 -8 -30 -15 -32 -15 -2 0 -2 24 0 53 5 69 -26 151 -80 212 -37 42
-39 47 -18 40 14 -4 36 -13 50 -20z m-2035 -86 c1 -24 6 -53 10 -64 7 -18 5
-17 -18 4 -32 29 -51 83 -42 118 l6 26 21 -20 c13 -13 21 -36 23 -64z m-555
47 c0 -24 -22 -80 -40 -101 -9 -11 -25 -51 -35 -90 -27 -108 -34 -110 -34 -10
-1 102 18 157 64 193 32 25 45 28 45 8z m2565 -19 c41 -41 55 -89 55 -191 0
-95 -11 -90 -35 14 -10 41 -26 84 -37 96 -17 20 -38 74 -38 101 0 22 21 14 55
-20z m-2515 -77 c13 -25 29 -42 45 -46 24 -6 25 -10 26 -78 l1 -71 16 45 16
45 8 -75 c4 -41 17 -111 29 -155 31 -113 31 -251 0 -322 -12 -28 -34 -62 -48
-75 l-25 -23 6 35 c6 35 6 34 -18 -11 -44 -82 -117 -139 -178 -139 -20 0 -17
5 23 48 63 65 84 98 108 170 28 82 26 101 -3 30 -76 -183 -212 -270 -326 -209
-77 41 -95 139 -47 244 30 66 72 97 132 97 42 0 75 -20 94 -57 18 -36 13 -63
-19 -94 -34 -35 -61 -33 -97 7 l-23 25 0 -24 c0 -29 17 -45 56 -53 22 -4 40 2
71 23 90 61 134 156 132 291 -1 80 -2 84 -10 42 -18 -85 -20 -92 -26 -86 -11
11 -20 237 -13 319 8 80 25 137 41 137 5 0 18 -18 29 -40z m1247 15 c27 -13
90 -34 139 -46 49 -12 92 -25 97 -29 4 -3 1 -14 -6 -25 -13 -16 -18 -17 -63
-5 -85 22 -281 25 -368 6 -79 -18 -110 -15 -120 10 -7 17 -6 18 98 44 43 11
97 31 120 44 22 13 44 24 48 25 3 1 28 -10 55 -24z m1210 -12 c8 -21 18 -72
20 -114 7 -89 -6 -309 -17 -309 -4 0 -14 37 -23 83 l-16 82 2 -110 c3 -97 6
-118 32 -173 31 -70 97 -137 145 -147 50 -11 95 28 80 70 -6 18 -7 17 -13 -6
-13 -51 -91 -58 -116 -10 -52 96 64 182 160 118 73 -48 112 -197 70 -265 -63
-100 -206 -94 -297 11 -19 23 -51 74 -70 112 -27 54 -34 62 -28 35 11 -57 53
-135 106 -195 54 -60 47 -70 -27 -36 -49 23 -85 61 -119 126 -23 45 -25 47
-19 16 9 -49 -14 -37 -51 29 -44 79 -48 194 -12 342 14 58 26 134 26 169 0 68
6 69 33 6 l17 -42 -3 78 c-2 67 0 77 15 77 18 0 53 39 63 71 10 29 24 23 42
-18z m-2287 -146 c14 -46 24 -45 11 1 -9 32 -9 32 25 32 27 0 34 -4 34 -20 0
-53 69 -193 150 -305 33 -44 36 -53 27 -80 -13 -41 -14 -41 -38 -19 l-22 19
17 -26 c14 -22 15 -31 5 -55 -7 -16 -13 -38 -15 -49 -3 -36 -44 -130 -61 -142
-42 -31 -115 5 -129 64 -10 36 10 49 35 24 25 -25 39 -26 63 -4 22 20 24 76 2
97 -8 9 -31 16 -50 16 -31 0 -34 3 -34 30 0 17 1 30 3 30 1 0 16 4 34 9 22 7
39 5 59 -5 28 -15 28 -15 9 6 -13 14 -31 20 -62 20 -39 0 -43 2 -43 25 0 14 5
45 12 69 10 37 9 51 -6 89 -10 27 -26 49 -37 52 -17 6 -19 16 -19 93 0 89 8
97 30 29z m644 5 c-12 -26 -28 -69 -34 -95 -15 -58 -34 -61 -89 -11 -35 31
-101 121 -101 137 0 3 15 1 32 -4 45 -12 115 -10 163 6 22 7 43 13 46 14 3 1
-4 -20 -17 -47z m818 27 c26 -7 70 -9 112 -5 l68 6 -45 -62 c-43 -61 -97 -108
-123 -108 -7 0 -20 26 -29 57 -9 32 -26 75 -37 97 -16 31 -17 38 -5 33 9 -3
35 -11 59 -18z m610 -155 c-42 -29 -48 -74 -26 -196 l6 -38 -44 0 c-54 0 -80
-17 -115 -77 l-27 -46 -9 28 c-7 20 -6 34 3 49 10 17 10 19 -1 9 -20 -19 -26
-16 -38 18 -10 29 -7 37 54 129 64 95 106 182 120 248 6 27 11 32 37 32 28 0
29 -2 24 -32 -5 -28 -3 -26 12 11 l17 44 3 -83 c2 -72 0 -84 -16 -96z m-1225
130 c-3 -20 -1 -24 12 -19 105 41 252 44 329 7 39 -19 41 -19 32 -2 -16 31
-12 40 20 40 22 0 30 -5 30 -18 0 -26 53 -103 89 -130 34 -25 40 -42 15 -42
-10 0 12 -22 48 -49 77 -58 86 -75 60 -111 -29 -39 -63 -36 -175 14 -138 61
-178 69 -305 64 -114 -5 -158 -19 -277 -93 -22 -14 -52 -25 -67 -25 -39 0 -88
45 -88 81 0 26 9 36 65 71 43 28 62 45 55 52 -6 6 5 24 35 53 31 29 49 57 57
88 11 40 15 45 41 45 26 0 29 -3 24 -26z m-343 -224 c21 -77 51 -125 112 -178
26 -23 45 -44 43 -45 -5 -5 -262 -77 -271 -77 -4 0 -12 18 -18 41 -12 44 -3
108 25 177 20 46 77 142 85 142 4 0 14 -27 24 -60z m1125 -7 c42 -73 71 -157
71 -209 0 -45 -20 -86 -39 -81 -199 54 -261 72 -261 77 0 3 16 16 35 28 19 13
46 40 61 60 32 41 73 137 74 170 0 38 18 25 59 -45z m-372 -92 c143 -66 138
-105 -9 -67 -136 36 -207 41 -313 22 -50 -8 -114 -23 -142 -32 -43 -14 -55
-15 -68 -4 -25 21 -18 30 43 58 111 51 167 62 297 59 112 -3 125 -5 192 -36z
m762 -67 c27 -6 31 -11 31 -39 0 -29 -3 -32 -25 -27 -38 7 -75 -22 -75 -59 0
-65 46 -92 85 -49 21 24 35 18 35 -15 0 -38 -51 -88 -89 -88 -42 0 -60 19 -86
92 -20 53 -21 64 -9 98 14 39 64 93 88 93 7 0 28 -3 45 -6z m-1915 -117 c8
-22 6 -31 -7 -45 -16 -15 -20 -15 -45 -2 -33 19 -39 42 -16 64 24 24 57 16 68
-17z m1928 16 c23 -21 23 -36 -1 -57 -39 -36 -86 2 -61 48 16 30 36 33 62 9z
m-1976 -181 l34 -18 -33 -32 -33 -32 -36 62 c-30 50 -35 66 -26 81 10 19 12
18 35 -12 14 -17 40 -39 59 -49z m1308 37 c14 -7 27 -24 31 -43 7 -27 9 -28
12 -8 5 27 13 27 63 2 33 -17 40 -26 42 -53 l1 -32 4 32 4 32 54 -26 c34 -17
58 -37 69 -57 l16 -31 -7 29 c-5 24 -3 28 9 23 9 -3 35 -11 58 -18 23 -7 43
-18 45 -23 31 -105 42 -133 63 -157 24 -30 46 -37 57 -19 3 5 0 7 -8 4 -8 -3
-19 1 -26 9 -12 15 -5 47 10 47 5 0 9 16 9 36 l0 37 33 -25 c100 -77 104 -198
7 -198 -14 0 -44 9 -65 20 l-40 20 40 -34 39 -33 -31 -5 c-46 -6 -116 14 -160
47 -21 16 -32 21 -24 11 8 -10 35 -31 59 -48 50 -34 44 -48 -21 -48 -87 0
-153 50 -204 155 -31 64 -34 62 -17 -11 9 -37 -5 -26 -48 38 -28 41 -44 82
-68 178 -17 69 -33 133 -36 143 -6 20 -3 21 30 6z m731 -10 c8 -24 -20 -69
-90 -147 -41 -46 -52 -52 -74 -47 -69 17 -91 61 -47 96 13 10 27 30 30 43 6
23 9 24 36 14 41 -14 75 -3 102 32 26 35 34 37 43 9z m-1158 -40 c87 -10 195
-5 324 17 32 5 38 3 44 -16 4 -14 2 -25 -5 -30 -21 -13 -155 -30 -231 -30 -44
0 -68 -4 -64 -10 9 -15 89 -12 191 5 49 9 95 17 103 18 9 1 19 -14 28 -42 7
-25 11 -46 10 -48 -2 -1 -21 6 -43 17 -33 18 -51 20 -119 15 -59 -5 -94 -2
-135 10 -30 9 -73 20 -95 24 -35 6 -155 75 -155 89 0 2 12 2 28 -1 15 -4 68
-11 119 -18z m-1603 -374 c25 -25 29 -54 16 -121 -8 -44 -25 -84 -51 -125 -55
-84 -94 -165 -114 -233 -20 -68 -46 -86 -90 -65 -88 43 -97 183 -20 297 13 20
38 72 56 116 18 45 39 89 48 100 36 42 126 60 155 31z m730 -534 c27 -38 28
-44 24 -143 -3 -91 -8 -114 -42 -198 -37 -92 -38 -97 -31 -175 6 -64 15 -385
11 -385 -1 0 -39 16 -86 35 -85 34 -85 34 -93 77 -4 24 -6 117 -4 208 l4 165
77 210 c94 257 94 257 104 251 5 -3 21 -23 36 -45z m-952 -148 c14 -16 31 -46
38 -68 19 -59 68 -171 150 -343 40 -84 70 -156 66 -160 -12 -11 -93 84 -142
167 -37 64 -43 70 -38 41 l7 -35 -53 50 c-82 80 -94 110 -95 243 0 89 3 115
15 122 21 14 23 13 52 -17z m1025 -80 c41 -74 64 -164 70 -283 5 -95 11 -127
35 -182 25 -59 28 -79 28 -170 0 -57 -3 -119 -6 -139 l-6 -37 -36 24 c-19 13
-39 24 -43 24 -5 0 -10 19 -10 43 -1 24 -4 32 -6 19 -3 -18 -9 -22 -21 -16 -9
3 -32 12 -49 18 -18 7 -35 14 -37 17 -3 3 1 27 9 54 8 26 15 75 15 107 0 44 7
72 26 111 l27 51 -12 171 c-7 93 -14 182 -17 198 -8 38 9 34 33 -10z m-40
-120 c4 -21 8 -79 8 -128 0 -71 -4 -97 -18 -118 -10 -15 -22 -25 -27 -22 -23
14 -3 305 21 305 4 0 12 -17 16 -37z m-282 -250 c1 -87 6 -147 17 -185 l16
-58 -24 0 c-34 0 -84 49 -93 92 -12 50 1 109 44 201 19 42 37 77 38 77 1 0 2
-57 2 -127z m140 -292 l60 -28 -49 -24 c-48 -24 -48 -24 -20 -29 37 -7 38 -36
3 -62 -22 -17 -30 -18 -49 -8 l-22 12 18 -25 19 -25 28 24 c16 13 35 24 43 24
8 0 14 6 14 14 0 21 54 56 94 63 28 4 35 2 40 -15 7 -21 -2 -92 -11 -92 -2 0
-14 5 -26 11 -22 12 -22 12 -4 -9 16 -17 17 -30 12 -76 -4 -31 -10 -58 -14
-61 -4 -2 -13 17 -20 43 -15 57 -36 82 -68 82 -22 0 -23 -2 -9 -15 8 -8 19
-15 25 -15 19 0 42 -46 40 -81 -2 -47 -31 -192 -40 -203 -8 -9 -69 79 -69 101
0 7 -9 13 -19 13 -25 0 -31 18 -32 93 l-1 62 -13 -49 c-16 -58 -30 -75 -47
-58 -10 10 -16 3 -30 -30 -9 -24 -17 -53 -17 -65 -1 -22 -21 -34 -21 -12 0 5
-5 7 -10 4 -29 -18 -53 136 -29 188 13 29 49 50 75 45 26 -5 31 -54 8 -79 -16
-18 -16 -19 -1 -13 37 14 34 94 -4 115 -13 6 -19 7 -15 1 3 -6 -7 -13 -23 -17
-32 -7 -54 -28 -71 -65 -9 -21 -10 -17 -7 27 4 59 28 103 57 103 10 0 28 14
40 30 l22 31 -45 -28 c-58 -35 -86 -84 -94 -168 -9 -95 -27 -78 -31 27 -2 66
-7 89 -19 100 -15 11 -16 11 -10 -5 6 -16 3 -18 -23 -12 -36 8 -80 -16 -80
-43 1 -16 1 -16 11 1 15 26 54 38 85 27 25 -10 26 -13 19 -57 -4 -25 -18 -64
-31 -85 -14 -21 -29 -50 -34 -63 -13 -35 -28 -31 -46 11 -11 26 -14 65 -12
144 3 123 16 150 73 150 17 0 35 4 41 9 21 20 122 44 179 43 33 -1 54 1 48 4
-21 9 -15 22 15 32 36 14 29 15 97 -17z m277 -148 c25 -22 23 -33 -6 -33 -13
0 -29 -6 -35 -14 -10 -12 -8 -13 11 -9 21 5 22 4 5 -8 -9 -8 -26 -36 -36 -64
-17 -43 -21 -47 -28 -30 -4 11 -8 44 -7 72 0 41 5 58 24 78 27 29 46 31 72 8z
m52 -79 c19 -19 20 -99 1 -169 -7 -27 -16 -63 -19 -78 -9 -38 -22 -27 -57 47
-32 68 -37 131 -14 176 22 42 61 53 89 24z m993 -251 c38 -14 86 -38 108 -53
46 -30 43 -4 32 -314 -7 -192 -12 -207 -82 -209 -69 -2 -83 51 -38 149 21 45
28 79 31 144 7 139 -16 190 -93 204 l-30 6 32 -15 c51 -24 46 -31 -25 -31 -44
-1 -86 -8 -121 -22 -30 -12 -57 -19 -59 -17 -3 3 10 35 29 72 36 71 82 113
125 113 13 0 54 -12 91 -27z m654 -49 c68 -40 76 -64 84 -260 12 -284 0 -351
-72 -380 -40 -17 -86 -7 -109 23 -18 24 -17 112 2 203 33 155 0 293 -79 333
-41 21 -89 18 -123 -8 -16 -13 -16 -14 -1 -9 9 3 29 3 45 -1 26 -7 26 -8 -24
-30 -96 -43 -131 -123 -121 -273 4 -48 16 -123 27 -166 11 -44 19 -81 17 -82
-8 -9 -49 32 -67 65 -31 63 -43 159 -38 336 5 220 8 224 196 259 104 20 219
15 263 -10z m513 -48 c89 -44 102 -94 66 -257 -11 -50 -23 -124 -27 -164 -8
-99 -15 -108 -54 -69 -29 29 -30 33 -20 70 6 21 11 77 11 124 0 93 -19 149
-60 185 -23 20 -23 20 1 -13 23 -32 24 -42 23 -160 -1 -108 -6 -145 -32 -246
-18 -66 -30 -122 -28 -124 3 -2 16 36 31 85 15 48 29 90 31 92 1 2 21 -11 43
-28 46 -37 61 -34 62 12 1 69 17 -9 28 -143 15 -165 5 -246 -46 -375 -52 -131
-159 -349 -183 -370 -20 -18 -22 -18 -73 2 -91 37 -156 57 -162 51 -3 -3 6
-35 21 -71 43 -105 34 -108 -107 -36 -220 112 -317 233 -340 424 -12 98 -6
322 9 337 6 6 1 32 -13 71 -80 220 -68 434 26 482 43 23 120 19 148 -6 20 -19
23 -29 19 -79 -3 -38 -12 -67 -28 -91 -20 -28 -20 -31 -4 -16 47 40 43 5 -16
-123 -22 -47 -42 -105 -45 -130 l-5 -45 16 35 c9 19 21 46 26 60 l10 25 10
-25 c34 -85 43 -102 56 -109 12 -7 12 -20 3 -79 -6 -39 -11 -110 -11 -159 0
-122 27 -181 99 -217 28 -15 56 -26 63 -26 6 0 22 -10 35 -22 22 -21 23 -21
63 -3 48 22 149 125 179 182 32 63 51 149 50 223 l-1 65 -16 -47 c-26 -72 -32
-68 -32 23 0 56 -3 79 -10 69 -10 -16 -11 -15 -28 55 -5 22 -21 80 -36 129
-26 87 -34 166 -17 166 4 0 13 -15 19 -32 10 -29 11 -26 6 27 -9 107 28 175
95 175 l36 1 -30 17 -30 16 35 6 c32 5 33 6 12 14 -95 32 -176 -74 -175 -230
0 -86 20 -211 34 -220 5 -3 9 -21 9 -40 0 -33 -2 -35 -27 -32 -38 4 -66 50
-93 155 -25 97 -37 273 -23 338 6 28 17 44 39 57 93 54 262 61 358 14z m-2834
-12 c0 -8 -4 -14 -9 -14 -12 0 -32 26 -25 33 10 9 34 -4 34 -19z m3187 -16
c19 -21 43 -84 43 -114 0 -8 -11 -8 -37 2 -21 7 -48 13 -61 14 -20 0 -21 3
-12 21 11 19 10 20 -10 9 -40 -22 -64 -94 -68 -212 -4 -105 -5 -108 -27 -108
-30 0 -62 41 -71 89 -8 42 11 242 25 270 17 30 71 51 137 51 50 0 64 -4 81
-22z m950 -4 c18 -3 35 -9 38 -13 2 -5 10 -43 16 -86 12 -77 12 -77 -15 -101
-21 -20 -26 -34 -26 -73 0 -65 -18 -80 -56 -48 -43 36 -87 56 -169 77 -64 16
-80 17 -127 6 -111 -26 -191 -86 -94 -72 57 9 64 -3 48 -83 -6 -31 -14 -84
-18 -119 l-7 -63 29 6 c16 4 69 18 117 32 109 33 116 29 117 -72 1 -98 -11
-255 -19 -255 -5 0 -16 10 -27 21 -28 32 -113 69 -158 69 l-39 0 6 -52 c7 -58
36 -169 61 -235 9 -24 17 -68 18 -100 l3 -57 -73 -45 c-73 -44 -73 -45 -102
-28 -28 17 -30 17 -84 -10 -74 -36 -81 -28 -57 68 31 122 45 295 31 375 -6 38
-19 83 -28 100 -77 144 -85 172 -52 181 27 7 25 27 -10 113 -16 40 -30 77 -30
81 0 5 12 12 27 15 l27 7 -25 10 c-13 5 -43 9 -66 8 l-43 -2 0 39 c0 45 44
119 94 157 79 60 233 106 433 130 63 7 120 18 126 24 11 11 40 10 134 -5z
m-4415 -6 c17 -14 58 -129 58 -165 0 -12 -9 -27 -20 -33 -17 -9 -19 -17 -13
-75 7 -81 -4 -88 -73 -46 -27 17 -92 44 -144 62 -85 28 -103 31 -171 25 -42
-3 -90 -11 -107 -17 -28 -10 -30 -13 -36 -82 -3 -40 -9 -100 -12 -135 l-6 -63
28 7 c16 3 67 22 114 41 192 78 198 79 215 62 25 -24 36 -121 21 -173 -8 -25
-11 -56 -9 -70 3 -14 2 -37 -1 -50 l-6 -25 -43 24 c-66 38 -153 28 -229 -26
-48 -35 -61 -76 -42 -140 9 -30 18 -69 21 -88 l5 -33 57 6 c252 26 423 38 431
30 11 -11 30 -130 30 -190 0 -33 -4 -43 -20 -47 -14 -4 -20 -14 -20 -35 0 -16
-9 -37 -20 -47 -19 -17 -21 -16 -67 14 -61 41 -160 71 -232 71 -67 0 -192 -30
-266 -64 -29 -13 -91 -53 -138 -89 l-86 -66 -81 42 c-77 40 -80 43 -78 74 2
29 -4 37 -55 74 -32 22 -56 46 -55 51 2 6 58 25 123 43 186 51 169 37 191 157
33 180 17 469 -31 572 -10 20 -47 64 -83 97 -43 39 -67 69 -67 83 -1 13 -11
39 -23 57 -23 38 -17 53 26 64 65 17 764 113 828 114 42 1 76 -4 86 -11z m606
-62 c364 -75 472 -113 536 -187 46 -55 62 -119 46 -196 -25 -121 -99 -212
-257 -316 -51 -33 -93 -63 -93 -67 0 -17 149 -192 218 -256 l77 -71 -54 -61
c-38 -44 -63 -65 -90 -72 -20 -5 -52 -25 -71 -45 -31 -32 -70 -47 -70 -27 0 4
-5 39 -10 78 -12 96 -43 174 -89 225 -32 37 -44 43 -77 44 -35 0 -39 3 -42 27
-2 19 2 27 15 30 14 3 10 11 -25 46 -23 23 -46 42 -51 42 -6 0 -22 -11 -37
-24 -27 -22 -27 -25 -17 -67 6 -24 18 -62 26 -84 8 -22 17 -68 21 -102 l7 -61
-74 -46 c-41 -25 -77 -46 -82 -46 -5 0 -17 7 -26 16 -17 15 -22 15 -68 -5 -67
-29 -95 -28 -88 2 3 12 13 56 23 97 25 105 25 425 1 560 -20 110 -51 211 -74
247 -16 24 -16 26 6 44 13 11 29 19 37 19 24 0 16 19 -45 103 -99 137 -102
182 -9 143 13 -6 17 -1 20 21 3 24 9 29 41 34 21 3 43 11 48 16 7 7 33 5 82
-8 40 -10 150 -34 245 -53z m932 28 c74 -20 136 -38 138 -39 1 -1 -9 -38 -23
-80 -18 -54 -26 -94 -23 -127 3 -44 1 -48 -20 -48 -15 0 -26 -8 -32 -26 -12
-31 -26 -314 -16 -314 4 0 15 4 25 9 10 6 87 31 172 57 230 69 280 98 326 189
22 43 27 47 34 30 4 -11 8 -31 8 -44 1 -35 37 -105 72 -139 l30 -29 -50 -46
c-27 -25 -95 -76 -150 -111 -56 -36 -101 -71 -101 -77 0 -21 140 -187 210
-249 39 -34 70 -68 70 -75 0 -24 -108 -132 -137 -138 -16 -3 -45 -22 -66 -42
-54 -51 -70 -44 -79 31 -18 168 -92 289 -176 289 -31 0 -38 4 -40 23 -2 15 3
25 18 30 20 8 19 10 -24 50 -25 23 -49 42 -54 42 -5 0 -21 -11 -35 -24 -23
-22 -25 -27 -16 -66 5 -23 16 -54 24 -69 8 -16 17 -62 21 -103 l7 -75 -44 -30
c-24 -17 -59 -38 -77 -47 -32 -17 -35 -17 -53 0 -19 17 -22 16 -72 -4 -46 -19
-97 -29 -97 -18 0 2 6 21 14 42 70 201 37 734 -55 882 -15 24 -1 48 39 63 22
8 23 11 11 29 -94 131 -119 170 -124 193 -9 35 13 44 54 22 l31 -16 0 36 c0
33 2 35 33 35 17 0 40 7 50 15 11 7 24 12 30 10 7 -2 73 -21 147 -41z m386 -5
c38 -35 33 -95 -11 -154 -31 -40 -32 -44 -10 -29 47 31 29 -10 -46 -103 -39
-48 -80 -106 -92 -128 -20 -39 -21 -39 -28 -15 -7 24 -7 24 -8 -5 -2 -58 -17
-59 -39 -3 -35 87 -45 144 -40 226 3 51 12 91 26 118 55 107 182 155 248 93z
m3334 -18 c0 -19 32 -41 61 -41 16 0 32 -6 35 -14 3 -8 -8 -57 -25 -109 -47
-147 -56 -246 -42 -466 6 -102 16 -204 22 -226 17 -66 27 -127 31 -186 l4 -56
-82 -41 -82 -41 -179 6 c-162 5 -183 8 -228 30 -103 50 -172 144 -210 288 -20
75 -34 317 -35 582 l0 202 43 11 c23 5 58 19 77 29 32 17 71 25 108 22 6 -1
12 -8 12 -17 0 -12 9 -15 43 -12 41 3 42 2 45 -28 2 -19 -12 -69 -33 -124 -76
-195 -102 -383 -74 -536 12 -68 45 -150 63 -157 6 -3 34 -1 61 3 55 9 69 3
135 -56 l38 -34 6 26 c30 118 24 551 -11 768 -16 105 -16 109 2 122 10 8 28
14 39 14 12 0 48 11 81 25 63 26 95 31 95 16z m-1743 -86 c49 -56 54 -169 13
-303 -23 -76 -28 -86 -51 -94 -13 -5 -18 1 -23 25 -4 18 -32 85 -62 150 -31
65 -53 121 -50 125 10 9 60 -51 91 -108 13 -25 24 -42 25 -38 0 14 -25 64 -58
112 -27 41 -32 57 -30 95 2 37 8 48 28 59 35 18 91 8 117 -23z m-1614 -234
c-8 -31 16 -90 44 -108 l25 -17 -34 -17 c-19 -10 -95 -36 -170 -58 -74 -22
-143 -43 -152 -47 -14 -5 -16 2 -15 57 1 35 4 89 8 119 6 48 7 52 14 27 4 -15
17 -53 28 -84 21 -55 21 -55 58 -50 41 5 80 36 104 82 14 27 84 115 92 115 2
0 1 -9 -2 -19z m879 -183 c19 -20 36 -28 62 -28 20 0 36 -4 36 -10 0 -5 7 -10
15 -10 12 0 15 -14 15 -70 0 -68 1 -70 25 -70 24 0 25 -2 19 -42 -14 -96 -89
-214 -174 -273 -36 -25 -42 -26 -58 -13 -9 9 -34 21 -54 27 -106 34 -131 96
-118 282 11 139 13 144 52 147 44 3 78 29 107 82 22 40 26 42 35 25 6 -11 23
-32 38 -47z m-2206 -388 c12 -12 5 -92 -7 -85 -11 7 -30 76 -23 87 7 11 18 10
30 -2z"/>
<path d="M6200 11680 c-13 -8 -12 -10 3 -10 9 0 17 5 17 10 0 12 -1 12 -20 0z"/>
<path d="M7245 11680 c3 -5 14 -10 23 -10 15 0 15 2 2 10 -20 13 -33 13 -25 0z"/>
<path d="M7577 11033 c-4 -3 -7 -16 -7 -27 1 -19 2 -19 11 -3 15 26 83 23 103
-5 23 -32 20 -52 -11 -89 -21 -25 -23 -30 -8 -21 29 15 71 62 56 62 -7 0 -9 4
-6 10 10 15 -13 49 -45 65 -30 15 -82 20 -93 8z"/>
<path d="M7305 10940 c-4 -6 -2 -16 3 -23 5 -7 12 -21 15 -32 2 -11 5 -1 6 23
1 40 -10 54 -24 32z"/>
<path d="M7227 10542 c-21 -23 -21 -41 -1 -70 18 -26 56 -29 78 -6 19 18 21
65 4 82 -18 18 -63 14 -81 -6z"/>
<path d="M6222 10534 c-51 -35 -8 -117 50 -95 42 16 50 59 18 91 -24 24 -38
25 -68 4z"/>
<path d="M5770 9603 c0 -11 76 -132 93 -148 6 -5 2 4 -8 20 -11 17 -34 54 -52
84 -18 30 -33 50 -33 44z"/>
<path d="M7649 9538 c-17 -29 -38 -63 -47 -75 -8 -13 -12 -23 -10 -23 6 0 68
92 87 128 22 42 3 22 -30 -30z"/>
<path d="M6675 9681 c-42 -11 -61 -22 -140 -85 -38 -31 -92 -66 -120 -77 -42
-17 -45 -19 -16 -14 33 5 104 42 205 108 43 28 58 32 117 32 64 0 76 -4 181
-58 62 -33 111 -57 108 -54 -26 25 -147 111 -177 126 -45 23 -116 33 -158 22z"/>
<path d="M5632 6975 c0 -16 2 -22 5 -12 2 9 2 23 0 30 -3 6 -5 -1 -5 -18z"/>
<path d="M7911 6384 c0 -11 3 -14 6 -6 3 7 2 16 -1 19 -3 4 -6 -2 -5 -13z"/>
<path d="M7937 6290 c3 -25 9 -70 13 -100 l7 -55 1 50 c0 28 -6 73 -13 100
l-14 50 6 -45z"/>
<path d="M7376 6161 c-4 -29 -5 -56 -1 -59 3 -3 5 7 5 22 0 16 4 25 10 21 11
-7 11 8 1 45 -6 21 -9 16 -15 -29z"/>
<path d="M7406 6117 c3 -10 9 -15 12 -12 3 3 0 11 -7 18 -10 9 -11 8 -5 -6z"/>
<path d="M5585 6373 c-22 -3 -45 -9 -52 -14 -12 -11 -19 -65 -28 -236 l-5
-102 57 24 c32 13 123 44 203 69 151 47 193 70 229 121 31 46 28 81 -10 100
-71 37 -240 53 -394 38z m290 -65 c28 -6 60 -16 73 -22 l23 -12 -23 -34 c-29
-45 -84 -71 -244 -120 -71 -21 -137 -42 -146 -45 -16 -6 -18 1 -18 76 0 46 3
100 6 120 5 32 11 37 48 46 46 12 204 7 281 -9z"/>
<path d="M6855 6418 l-40 -43 43 40 c39 36 47 45 39 45 -2 0 -21 -19 -42 -42z"/>
<path d="M8311 9025 c28 -47 41 -153 38 -295 -4 -114 -3 -125 9 -92 6 20 24
48 39 61 l27 23 -12 113 c-7 72 -19 132 -32 163 -19 43 -26 51 -54 54 l-33 4
18 -31z"/>
<path d="M8432 8714 c36 -74 49 -110 53 -142 2 -22 13 -58 24 -79 98 -193 5
-485 -210 -659 -42 -34 -92 -86 -115 -120 -40 -60 -110 -212 -101 -220 2 -3
23 25 47 61 23 36 43 65 44 65 0 0 1 -89 1 -197 0 -109 5 -234 10 -278 l9 -80
7 100 c4 55 14 120 23 144 11 30 16 78 16 151 0 98 -2 108 -21 116 -19 9 -19
11 19 70 22 34 57 74 78 90 68 51 168 158 203 217 102 174 123 367 55 516 -13
29 -24 64 -24 77 0 34 -37 129 -58 146 -20 18 -66 34 -60 22z"/>
<path d="M6151 8365 c-24 -31 -59 -177 -63 -260 -3 -52 -1 -60 14 -57 10 1 29
-5 43 -14 14 -9 28 -14 31 -11 3 3 -4 11 -16 17 -17 9 -20 17 -16 36 4 16 2
23 -6 22 -21 -5 -19 27 3 51 21 22 21 25 6 56 -21 44 -12 101 20 123 13 9 36
27 51 39 l27 23 -37 0 c-27 0 -42 -6 -57 -25z"/>
<path d="M6293 8280 c9 -13 17 -36 17 -50 1 -22 2 -23 11 -8 11 20 1 46 -27
69 -17 13 -17 13 -1 -11z"/>
<path d="M7287 8245 c9 -19 18 -33 21 -31 4 5 -26 66 -33 66 -3 0 3 -16 12
-35z"/>
<path d="M6794 8199 c-3 -6 -19 -9 -35 -7 -25 4 -30 1 -34 -21 -3 -14 -13 -61
-23 -103 l-18 -78 55 1 56 0 -34 12 c-57 20 -49 35 21 39 72 4 124 -3 121 -17
-1 -6 -12 -13 -25 -16 -23 -6 -23 -6 5 -18 16 -6 47 -11 70 -11 l42 1 -35 29
c-33 27 -57 36 -155 60 -33 8 -26 9 47 7 65 -3 92 -8 106 -20 40 -36 40 -13 0
96 -18 51 -23 57 -49 57 -28 0 -29 -2 -29 -50 0 -52 -4 -55 -48 -44 -21 6 -22
10 -16 50 6 42 -5 60 -22 33z"/>
<path d="M7323 8105 c0 -38 2 -53 4 -32 2 20 2 52 0 70 -2 17 -4 1 -4 -38z"/>
<path d="M7012 8140 c0 -14 2 -19 5 -12 2 6 2 18 0 25 -3 6 -5 1 -5 -13z"/>
<path d="M6180 8130 c0 -5 5 -10 11 -10 5 0 7 5 4 10 -3 6 -8 10 -11 10 -2 0
-4 -4 -4 -10z"/>
<path d="M6208 8094 c-4 -5 0 -20 8 -34 7 -14 13 -18 13 -10 -1 24 -15 54 -21
44z"/>
<path d="M6653 8040 c0 -30 2 -43 4 -27 2 15 2 39 0 55 -2 15 -4 2 -4 -28z"/>
<path d="M6585 8020 c-16 -4 -28 -8 -25 -9 3 0 19 -5 36 -10 28 -8 31 -7 27
10 -3 10 -6 18 -7 18 0 -1 -14 -5 -31 -9z"/>
<path d="M7292 8011 c-28 -24 -28 -29 3 -27 19 1 25 7 25 24 0 27 -1 27 -28 3z"/>
<path d="M6114 7975 c22 -59 38 -173 32 -239 -24 -282 -16 -470 22 -508 33
-33 178 -109 255 -133 100 -32 210 -34 247 -5 14 10 21 22 17 27 -5 4 -43 21
-85 38 -43 17 -76 36 -75 43 2 8 -11 12 -38 12 -72 0 -118 39 -119 101 0 54
58 95 74 53 8 -21 8 -21 -14 -27 -22 -6 -27 -45 -10 -78 14 -25 65 -26 67 -1
1 9 8 35 17 57 8 22 15 54 16 72 0 26 -3 30 -19 26 -27 -7 -60 13 -67 42 -13
51 66 125 134 125 46 0 82 -34 82 -78 0 -20 -4 -43 -9 -51 -7 -10 -3 -23 10
-39 35 -44 18 -118 -36 -160 l-26 -20 37 -12 c24 -8 69 -11 123 -7 98 6 167
28 342 111 112 52 162 89 174 127 13 40 -1 45 -202 75 -66 10 -44 24 39 24 46
0 88 4 94 8 6 4 25 36 44 72 18 36 42 82 52 102 21 40 28 122 11 139 -6 6 -26
3 -59 -11 -125 -54 -345 -85 -557 -77 -150 5 -244 24 -352 72 -50 22 -55 22
-65 7 -8 -14 -9 -12 -10 11 0 15 -4 27 -10 27 -5 0 -10 -11 -10 -25 0 -14 -4
-25 -10 -25 -5 0 -10 16 -10 35 0 30 -5 37 -39 54 -21 11 -47 28 -57 38 -17
17 -18 17 -10 -2z m128 -344 c40 -85 92 -167 131 -209 30 -31 30 -33 14 -50
-20 -19 -22 -17 -88 76 -28 39 -95 187 -114 252 -15 48 23 2 57 -69z m504 38
c8 -17 13 -40 10 -52 -4 -15 -2 -17 7 -8 17 17 37 13 37 -7 0 -23 -29 -64 -40
-57 -5 3 -11 -4 -15 -15 -8 -24 -37 -26 -59 -4 -19 19 -22 66 -3 59 8 -4 12 8
12 39 0 36 17 76 31 76 2 0 11 -14 20 -31z m230 -156 c3 -10 11 -28 16 -40 8
-15 8 -34 0 -62 -12 -49 -7 -53 12 -8 11 26 15 29 21 15 11 -28 -26 -82 -58
-86 -22 -3 -27 1 -27 18 0 21 -2 20 -28 -8 -37 -40 -68 -49 -93 -26 -18 17
-20 16 -42 -4 -28 -26 -82 -30 -91 -6 -25 66 30 170 86 162 35 -5 37 -59 3
-94 -14 -14 -32 -23 -40 -20 -17 6 -21 -9 -5 -19 19 -12 51 17 77 71 39 82 85
106 116 62 16 -23 16 -23 16 13 1 20 4 39 8 42 11 12 23 8 29 -10z"/>
<path d="M6717 7581 c-3 -12 -2 -23 3 -26 12 -7 22 27 12 37 -6 6 -12 1 -15
-11z"/>
<path d="M6873 7448 c-19 -25 -24 -38 -14 -38 11 0 35 39 28 46 -2 3 -9 -1
-14 -8z"/>
<path d="M6742 7414 c-7 -14 -8 -23 -2 -19 15 9 32 45 22 45 -5 0 -14 -12 -20
-26z"/>
<path d="M6920 7427 c0 -16 -42 -57 -58 -57 -7 0 -12 -4 -12 -10 0 -20 29 -9
54 21 23 27 34 59 21 59 -3 0 -5 -6 -5 -13z"/>
<path d="M6499 7525 c-15 -8 -29 -22 -33 -31 -8 -22 13 -49 28 -34 16 16 36
12 37 -7 0 -10 5 -5 11 12 6 17 17 37 24 46 27 30 -20 40 -67 14z"/>
<path d="M6587 7478 c-7 -25 -3 -33 12 -23 13 8 15 45 2 45 -5 0 -11 -10 -14
-22z"/>
<path d="M8304 7349 c3 -33 14 -93 23 -132 l18 -72 3 93 c2 66 6 91 14 86 8
-5 9 -1 5 10 -4 10 -7 26 -7 36 0 11 -12 22 -31 29 l-32 11 7 -61z"/>
<path d="M6584 7392 c-6 -4 -14 -25 -18 -47 -4 -21 -14 -52 -22 -67 -17 -33
-12 -35 26 -8 34 24 54 71 46 105 -7 26 -13 30 -32 17z"/>
<path d="M7828 7327 c-15 -29 -41 -77 -59 -107 l-32 -54 26 17 c42 27 42 37
-7 -125 -8 -27 -13 -48 -11 -48 9 0 54 99 74 161 20 62 45 198 38 205 -2 2
-15 -20 -29 -49z"/>
<path d="M8106 7251 c-25 -28 -36 -78 -35 -161 l1 -75 12 50 12 50 15 -27 c13
-25 14 -19 14 77 0 58 0 105 -1 105 0 0 -8 -8 -18 -19z"/>
<path d="M7255 7105 c-9 -42 -15 -79 -12 -81 3 -3 12 29 22 71 9 42 15 79 12
81 -3 3 -12 -29 -22 -71z"/>
<path d="M7190 6984 c-65 -34 -256 -64 -455 -72 -163 -6 -167 -7 -90 -14 131
-13 273 1 465 44 52 12 98 21 101 20 3 0 11 10 17 23 7 14 11 24 9 24 -1 -1
-22 -12 -47 -25z"/>
<path d="M10015 6953 c-16 -9 -46 -30 -66 -48 -20 -18 -41 -34 -47 -36 -6 -2
-15 -23 -21 -47 l-9 -43 51 -32 c29 -17 60 -30 69 -29 9 2 29 -5 43 -14 l27
-18 -6 55 c-4 30 -3 59 1 65 4 6 32 23 61 38 33 17 52 33 52 44 0 10 6 24 13
31 10 10 7 16 -12 32 -29 24 -113 25 -156 2z m138 -10 c15 -4 17 -11 12 -31
-4 -15 -10 -28 -13 -30 -4 -1 -29 -15 -57 -30 l-50 -27 0 -53 c1 -35 -3 -52
-11 -52 -7 0 -15 4 -18 9 -3 4 -19 11 -35 14 -16 3 -41 17 -56 30 -37 31 -29
59 35 116 72 63 115 75 193 54z"/>
<path d="M3140 6771 c-85 -28 -160 -100 -160 -154 0 -32 24 -67 46 -67 12 0
99 -279 129 -415 56 -254 60 -401 19 -630 -27 -147 -27 -150 -9 -168 22 -23
73 -21 113 3 30 19 34 19 57 4 22 -14 27 -14 67 4 61 28 151 98 164 127 7 18
7 50 -1 110 l-12 84 56 22 c124 49 172 80 267 172 75 72 103 108 131 164 115
233 -13 471 -346 642 -158 81 -236 103 -376 107 -66 2 -131 0 -145 -5z m315
-36 c158 -41 363 -160 460 -267 84 -93 110 -154 110 -258 0 -130 -34 -187
-203 -343 -49 -46 -180 -116 -245 -133 -16 -3 -31 -13 -34 -22 -4 -8 -1 -56 6
-106 l12 -91 -33 -28 c-50 -42 -120 -87 -136 -87 -7 0 -16 9 -19 20 -7 25 -7
25 -73 -10 -30 -17 -61 -30 -69 -30 -15 0 -14 7 14 165 12 67 18 152 19 260 0
144 -3 175 -32 314 -19 85 -54 217 -79 294 -37 113 -44 144 -34 158 16 27 15
27 -26 31 -30 2 -39 8 -41 24 -4 29 43 83 93 105 52 24 224 26 310 4z"/>
<path d="M3442 6472 c-22 -14 -25 -81 -13 -223 16 -175 28 -229 50 -229 34 0
174 41 222 65 77 40 119 81 119 120 0 46 -53 119 -127 176 -85 65 -218 113
-251 91z m124 -91 c70 -33 179 -134 190 -175 8 -35 -21 -67 -90 -101 -75 -36
-196 -67 -201 -52 -10 29 -25 200 -25 281 l0 89 33 -7 c17 -4 59 -19 93 -35z"/>
</g>
</svg>
